<svg width="210" height="189" viewBox="0 0 210 189" fill="none" xmlns="http://www.w3.org/2000/svg">
<path d="M206.786 33.5172L29.0259 2.17334L2.173 154.464L179.933 185.807L206.786 33.5172Z" fill="#111111"/>
<path d="M82.8438 58.8793C91.6856 60.4383 100.224 54.4599 101.783 45.6181C101.899 44.9583 102.543 44.3915 103.335 44.5311C103.995 44.6475 104.562 45.2917 104.422 46.0835C102.863 54.9253 108.841 63.4633 117.683 65.0224C118.343 65.1387 118.91 65.7829 118.77 66.5747C118.654 67.2346 118.01 67.8013 117.218 67.6617C108.376 66.1027 99.838 72.0811 98.2789 80.9229C98.1626 81.5827 97.5184 82.1495 96.7266 82.0098C96.0667 81.8935 95.5 81.2493 95.6396 80.4575C97.1986 71.6157 91.2202 63.0776 82.3784 61.5186C81.7186 61.4022 81.1518 60.758 81.2915 59.9662C81.4311 59.1744 82.184 58.7629 82.8438 58.8793ZM83.4706 100.083L81.7487 109.849C81.004 114.072 82.8363 116.027 85.7395 116.539C88.2469 116.981 90.265 115.568 91.2972 113.573L90.7154 116.873L99.2933 118.385L99.3166 118.253C98.3306 117.671 97.7639 117.027 98.0896 115.179L101.022 98.5513L92.7389 98.4515L92.7156 98.5835C93.5696 99.1423 93.6939 99.9807 93.3681 101.828L91.3902 113.045C91.0565 113.395 90.5908 113.721 89.931 113.604C88.8752 113.418 88.3317 112.642 88.5877 111.191L91.124 96.8061L82.2902 96.7453L82.2669 96.8772C83.5168 97.5058 83.7964 98.2355 83.4706 100.083ZM84.3456 140.65L84.0817 140.604L85.6407 131.762L76.8847 132.803L76.8614 132.935C77.9793 133.541 78.3443 134.557 77.9953 136.537L76.1104 147.226C75.8545 148.678 74.9231 149.33 73.9062 149.695L73.883 149.827L84.9682 151.782L84.9915 151.65C83.7183 151.153 82.647 150.284 82.9728 148.436L83.8104 143.685C84.6249 139.067 86.4179 138.158 88.6613 138.554C89.7171 138.74 90.3537 138.988 90.703 139.322L90.835 139.345L91.9985 132.747L91.4706 132.654C88.412 132.251 85.7498 134.23 84.3456 140.65ZM45.2454 140.151C43.6312 143.132 40.5109 144.623 37.6076 144.111C34.7043 143.599 33.4388 142.287 31.9014 139.431L31.5132 138.546C29.6194 140.798 26.6543 142.18 24.0149 141.714C20.3199 141.063 17.8354 138.175 18.5568 134.084C19.2316 130.257 21.8939 128.278 25.9304 127.765L25.7362 127.322C24.1134 124.179 24.0822 122.812 24.4778 120.569C25.0828 117.138 28.4514 115.01 32.9383 115.801C35.1818 116.197 37.5728 117.299 38.9237 118.898L34.9653 122.826V122.826C35.7256 119.287 34.623 117.051 32.6435 116.702C31.1918 116.446 30.5243 117.145 30.3847 117.937C30.2218 118.86 30.3229 119.831 31.8603 122.687L39.0892 136.48C40.4091 139.026 41.434 140.159 43.0176 140.439C43.6774 140.555 44.3838 140.407 45.2454 140.151ZM31.2104 137.948L26.1478 128.075C25.3716 128.619 24.968 129.364 24.7121 130.816C24.1071 134.247 26.1025 137.592 29.1378 138.127C30.0615 138.29 30.7447 138.274 31.2104 137.948ZM111.058 146.585C110.01 152.523 105.198 155.893 99.3915 154.869C93.7169 153.869 90.2153 149.033 91.2624 143.094C92.3096 137.156 97.1219 133.786 102.928 134.81C108.603 135.811 112.105 140.646 111.058 146.585ZM103.799 145.305C104.916 138.971 104.52 136.587 102.673 136.262C100.825 135.936 99.6376 138.04 98.5206 144.374C97.4037 150.709 97.7999 153.092 99.6475 153.417C101.495 153.743 102.682 151.639 103.799 145.305ZM66.8759 112.397L66.8526 112.529L77.9379 114.483L77.9611 114.351C76.688 113.855 75.6166 112.985 75.9424 111.138L78.6184 95.9617L80.8618 96.3573L81.0247 95.4336L77.9895 94.8984C75.9711 93.9982 75.9864 92.368 76.1725 91.3123C76.3354 90.3885 77.2512 89.0532 79.0988 89.379C80.6824 89.6582 81.9478 90.9699 81.7464 93.6558L81.8784 93.6791L85.2779 90.6046C84.1211 89.4481 82.7859 88.5323 80.1465 88.0669C75.7916 87.2991 72.8188 89.4963 72.0742 93.7192L72.0509 93.8513L70.3354 93.5488L70.1725 94.4725L71.8881 94.775L69.2121 109.951C68.8009 111.512 68.0014 112.187 66.8759 112.397ZM26.9048 101.403L29.9531 84.1151C30.3952 81.6077 29.7197 80.8082 28.3844 79.8924L28.4077 79.7605L40.8126 81.9478C47.9389 83.2043 50.268 86.2004 49.6165 89.8955C49.0115 93.3266 44.8278 95.4463 40.3409 94.6552L40.2943 94.9191C44.1446 95.462 46.7455 97.6895 47.2893 100.779L48.2526 106.119C48.6099 107.951 49.526 108.929 50.4033 109.356L50.3567 109.62L40.7231 107.921C40.2261 106.881 40.0397 105.624 39.8532 104.366L39.0062 98.3659C38.61 95.9828 38.245 94.966 36.6614 94.6867L35.8696 94.5471L34.4502 102.597C34.1244 104.445 34.7922 106.059 35.9956 106.952L35.9723 107.084L23.8313 104.943L23.8546 104.811C25.3993 104.539 26.4626 103.91 26.9048 101.403ZM36.0325 93.6234L36.6923 93.7398C38.9358 94.1353 40.651 92.1246 41.2793 88.5614C41.8611 85.2623 41.1776 82.9647 38.6702 82.5225L38.0104 82.4062L36.0325 93.6234ZM74.4016 139.169C73.2381 145.767 68.7519 149.603 63.3412 148.649C62.5494 148.509 61.5402 148.059 61.0588 147.702L60.291 152.057C59.9885 153.772 61.0598 154.642 62.3097 155.27L62.2864 155.402L51.2012 153.448L51.2244 153.316C52.35 153.106 53.1494 152.43 53.4287 150.847L56.6631 132.503C56.9656 130.788 56.5774 129.903 55.4595 129.297L55.4827 129.166L64.5027 128.171L63.9675 131.206C65.2403 129.389 67.406 128.683 69.3855 129.032C73.3678 129.598 75.3789 133.626 74.4016 139.169ZM66.6158 140.109C67.5001 135.094 67.0261 131.609 64.9146 131.237C64.6506 131.19 64.2315 131.252 63.921 131.47L61.2683 146.514C61.4857 146.825 61.8583 147.026 62.2542 147.096C64.1018 147.422 65.8247 144.596 66.6158 140.109ZM31.0738 49.2066C31.1901 48.5467 31.8343 47.98 32.6262 48.1196C38.9606 49.2365 45.0148 44.9973 46.1317 38.6629C46.2481 38.003 46.8923 37.4363 47.6841 37.5759C48.4759 37.7155 48.9107 38.3364 48.7711 39.1282C47.6541 45.4627 51.8934 51.5169 58.2278 52.6338C58.8876 52.7502 59.4544 53.3944 59.3148 54.1862C59.1984 54.846 58.5542 55.4128 57.7624 55.2732C51.428 54.1563 45.3737 58.3954 44.2568 64.7298C44.1405 65.3897 43.4962 65.9564 42.7044 65.8168C41.9126 65.6772 41.4778 65.0563 41.6175 64.2644C42.7344 57.93 38.4952 51.8759 32.1608 50.7589C31.5009 50.6426 30.9342 49.9984 31.0738 49.2066ZM38.332 50.4864C41.1113 52.4732 43.1998 55.2907 43.9843 58.5586C45.9711 55.7793 48.7886 53.6909 52.0566 52.9064C49.2773 50.9196 47.1887 48.102 46.4043 44.8341C44.4174 47.6134 41.5999 49.7019 38.332 50.4864ZM139.286 63.6609C140.249 64.3749 144.037 66.8119 149.184 67.7194C152.087 68.2313 155.348 68.2619 158.662 67.2135C162.109 66.1883 165.322 64.1696 167.86 61.3514C168.372 60.7614 168.38 59.9464 167.79 59.4341C167.2 58.9219 166.385 58.9142 165.873 59.5042C163.668 61.973 160.789 63.6424 157.893 64.6286C149.541 67.238 142.228 62.4108 140.761 61.4717C140.148 61.0914 139.309 61.2157 138.929 61.829C138.549 62.4423 138.673 63.2806 139.286 63.6609ZM158.342 56.6797C158.715 56.8815 158.979 56.928 159.375 56.9978C160.695 57.2305 162.154 56.6714 162.914 55.4448C163.877 53.8456 163.675 51.905 163.38 50.4922C163.232 49.7859 162.642 49.2736 161.936 49.4211C161.229 49.5687 160.717 50.1588 160.865 50.8652C161.051 52.1227 161.129 53.2249 160.725 53.9702C160.523 54.3428 159.949 54.5137 159.576 54.3119C159.204 54.1102 159.01 53.6677 158.815 53.2253C158.645 52.6509 158.738 52.123 158.854 51.4632C158.97 50.8033 158.559 50.0504 157.899 49.9341C157.239 49.8177 156.486 50.2293 156.37 50.8891C156.161 52.0768 156.13 53.0238 156.363 54.0174C156.572 55.143 157.333 56.2296 158.342 56.6797ZM145.674 59.0723C146.179 59.2974 146.551 59.4992 147.079 59.5922C148.663 59.8715 150.277 59.2037 151.193 57.8684C152.489 55.9198 152.357 53.5833 152.108 51.9066C152.093 51.2235 151.371 50.688 150.688 50.7036C150.005 50.7192 149.469 51.4412 149.485 52.1243C149.578 53.9097 149.741 55.2992 149.004 56.3938C148.624 57.0071 147.63 57.2401 147.017 56.8598C146.536 56.5028 146.101 55.8819 145.953 55.1755C145.806 54.4691 145.945 53.6773 146.131 52.6216C146.38 51.985 145.968 51.2321 145.2 50.9605C144.563 50.7122 143.81 51.1237 143.539 51.8922C143.174 53.1886 143.073 54.5316 143.283 55.6571C143.71 57.0931 144.58 58.335 145.674 59.0723ZM112.503 100.576L103.747 101.617L103.723 101.749C104.841 102.354 105.206 103.371 104.857 105.351L102.972 116.04C102.716 117.492 101.785 118.144 100.768 118.509L100.745 118.641L111.83 120.596L111.853 120.464C110.58 119.967 109.509 119.098 109.835 117.25L110.672 112.499C111.487 107.88 113.28 106.972 115.523 107.368C116.579 107.554 117.216 107.802 117.565 108.136L117.697 108.159L118.86 101.561L118.333 101.468C115.165 100.909 112.503 102.889 111.099 109.309L110.835 109.262L112.371 100.552L112.503 100.576ZM126.765 64.4467C125.328 57.9341 126.647 51.2271 130.225 45.5987C133.935 39.9936 139.523 36.0805 146.012 34.7754C152.525 33.3384 159.232 34.6571 164.86 38.2349C170.466 41.9446 174.379 47.5332 175.684 54.0225C177.121 60.5351 175.802 67.2422 172.224 72.8705C168.515 78.4756 162.926 82.3888 156.437 83.6938C153.192 84.3463 150.04 84.471 146.873 83.9125C143.574 83.3308 140.391 82.0892 137.589 80.2343C132.092 76.6798 128.179 71.0913 126.765 64.4467ZM139.063 78.045C144.078 81.2425 150.125 82.4449 155.932 81.1555C161.738 79.8661 166.837 76.411 170.035 71.396C173.232 66.3809 174.435 60.3337 173.145 54.5274C171.856 48.7212 168.401 43.6216 163.386 40.4241C160.824 38.7478 158.014 37.708 155.111 37.1961C152.339 36.7074 149.475 36.7466 146.517 37.3137C140.711 38.6031 135.612 42.0582 132.414 47.0732C125.817 57.476 128.684 71.3163 139.063 78.045ZM128.757 96.3662L127.035 106.132C128.308 104.315 130.582 103.764 132.826 104.159C136.521 104.811 138.446 108.552 137.562 113.567C136.259 120.957 130.608 124.451 124.142 123.311C121.767 122.892 119.22 121.899 117.559 120.517L121.073 100.59C121.305 99.2704 120.94 98.2536 119.846 97.5163L119.869 97.3843L128.757 96.3662ZM126.919 106.792L124.266 121.836C124.507 122.014 124.747 122.193 125.275 122.286C126.991 122.588 128.621 120.291 129.575 114.88C130.598 109.073 129.651 106.729 128.068 106.45C127.408 106.334 127.12 106.419 126.919 106.792ZM51.4112 100.553C52.4816 94.4827 56.8126 90.7561 61.6954 91.617C64.7306 92.1522 68.8063 94.5037 67.5963 101.366L57.1708 99.5278C56.9774 103.712 58.7165 106.196 62.0157 106.777C63.8632 107.103 65.276 106.808 66.4557 105.519L66.6964 105.698C64.7953 111.077 60.6658 112.118 57.7625 111.606C53.8035 110.908 50.2942 106.888 51.4112 100.553ZM57.4112 97.393C57.3414 97.7889 57.2949 98.0529 57.2251 98.4488L61.7119 99.2399C62.5496 94.4891 62.0138 92.8978 60.5621 92.6419C59.2425 92.4092 57.9929 94.0939 57.4112 97.393ZM129.161 156.58L132.093 139.953L123.811 139.853L123.787 139.985C124.641 140.544 124.766 141.382 124.44 143.23L122.462 154.447C122.128 154.796 121.662 155.122 121.003 155.006C119.947 154.82 119.403 154.044 119.659 152.592L122.196 138.207L113.362 138.147L113.339 138.279C114.588 138.907 114.845 139.769 114.542 141.484L112.82 151.25C112.076 155.473 113.908 157.429 116.811 157.941C119.319 158.383 121.337 156.97 122.369 154.975L121.787 158.274L130.365 159.786L130.388 159.654C129.426 158.94 128.836 158.428 129.161 156.58ZM169.052 91.6332C167.563 100.079 173.215 108.151 181.661 109.641C182.321 109.757 182.887 110.401 182.748 111.193C182.631 111.853 181.987 112.42 181.195 112.28C172.75 110.791 164.677 116.443 163.188 124.889C163.072 125.549 162.427 126.116 161.636 125.976C160.844 125.836 160.409 125.215 160.549 124.424C162.038 115.978 156.386 107.905 147.94 106.416C147.28 106.3 146.713 105.655 146.853 104.864C146.969 104.204 147.613 103.637 148.405 103.777C156.851 105.266 164.923 99.6137 166.413 91.1678C166.529 90.5079 167.173 89.9412 167.965 90.0808C168.757 90.2204 169.192 90.8414 169.052 91.6332ZM166.569 97.9988C163.93 102.16 159.739 105.095 154.926 106.151C159.087 108.79 162.022 112.981 163.078 117.794C165.717 113.633 169.908 110.698 174.721 109.642C170.537 107.135 167.602 102.943 166.569 97.9988ZM69.8849 35.9115C70.0012 35.2517 70.6454 34.6849 71.4372 34.8246C75.6602 35.5692 79.8283 32.7664 80.5962 28.4114C80.7125 27.7516 81.3567 27.1848 82.1485 27.3245C82.8084 27.4408 83.3751 28.085 83.2355 28.8768C82.4909 33.0998 85.2938 37.2679 89.6487 38.0357C90.3086 38.1521 90.8753 38.7963 90.7357 39.5881C90.6194 40.2479 89.9752 40.8147 89.1834 40.6751C84.9604 39.9305 80.7922 42.7334 80.0244 47.0883C79.908 47.7481 79.2638 48.3149 78.472 48.1753C77.8122 48.0589 77.2454 47.4147 77.385 46.6229C78.1296 42.3999 75.3268 38.2318 70.9718 37.4639C70.18 37.3243 69.7453 36.7033 69.8849 35.9115ZM76.0873 37.0052C77.64 38.2315 78.7037 39.9158 79.3483 41.6623C80.5746 40.1096 82.2589 39.0459 84.0054 38.4014C82.4527 37.1751 81.389 35.4908 80.7444 33.7443C79.6501 35.3202 77.9658 36.3839 76.0873 37.0052ZM151.503 163.377L151.48 163.509L142.902 161.997L143.46 158.83C142.428 160.825 140.542 162.261 137.771 161.772C133.812 161.074 131.979 156.805 132.956 151.263C134.073 144.928 138.536 141.225 143.683 142.132C145.003 142.365 145.748 142.769 146.206 143.258L146.578 141.146C146.811 139.826 146.205 138.631 144.358 138.305L144.381 138.173L154.395 136.945L150.253 160.436C149.95 162.151 150.672 162.687 151.503 163.377ZM146.066 144.049C145.849 143.739 145.476 143.537 145.08 143.467C143.233 143.142 141.464 146.231 140.696 150.586C139.835 155.469 140.689 158.341 142.141 158.597C142.8 158.713 143.243 158.519 143.6 158.038L146.066 144.049V144.049ZM209.091 32.0187L181.586 188.004L-0.000508917 155.985L27.5039 0L209.091 32.0187ZM204.612 35.0389L30.5474 4.34661L4.36938 152.81L178.434 183.502L204.612 35.0389Z" fill="#C1F5EF"/>
</svg>
