<svg width="190" height="192" viewBox="0 0 190 192" fill="none" xmlns="http://www.w3.org/2000/svg">
<path d="M137.73 78.9133C147.066 62.9135 158.181 37.5548 149.342 18.7606C143.84 6.8335 135.133 5.16513 130.501 5.18944C122.313 5.21825 113.431 10.563 104.192 20.8109C97.1645 28.6815 91.6144 37.3376 89.474 42.4769C85.6526 51.2232 81.6231 60.8063 78.9413 70.7507C74.9371 66.2528 70.8779 62.081 66.9052 58.1921C60.0994 51.6123 50.665 43.5164 39.5063 38.8861C31.9113 35.7953 25.5072 35.5881 19.7833 38.1114C16.8015 39.487 14.3621 41.6247 12.3234 44.5677C6.34907 53.3536 5.47881 65.6824 10.1244 76.3249C14.77 86.9675 24.1766 92.4428 32.3337 97.3722C34.039 98.3973 35.7442 99.4226 37.2649 100.35C41.6853 103.174 45.8778 105.758 50.0703 108.343C40.6033 118.351 35.5839 128.237 34.9254 137.717C34.3884 146.078 37.3756 153.825 43.5175 160.762C51.9386 170.096 63.5017 173.52 71.7525 174.709C84.3841 176.57 97.2706 175.723 109.292 172.047C111.272 171.442 113.209 170.695 115.004 169.992C129.509 164.32 143.172 154.885 152.706 144.083C163.928 131.218 168.727 117.069 166.478 104.148C164.7 94.7934 159.69 87.51 151.804 82.9617C147.415 80.7465 142.394 79.498 137.73 78.9133Z" fill="black"/>
<path d="M120.968 88.8324C120.968 88.8324 152.718 46.4939 141.485 22.4C129.808 -2.64067 102.505 34.0081 97.1989 45.992C91.1939 59.7361 84.706 75.9476 84.5592 91.1483C84.5277 90.5394 83.062 89.2864 82.7476 88.7639C81.1639 86.619 79.4821 84.6587 77.757 82.5571C72.4402 76.2953 67.0253 70.2183 61.0878 64.4556C53.8694 57.538 45.7592 50.7385 36.404 46.9486C32.3295 45.2559 27.5361 44.2469 23.3247 46.1531C21.6707 46.8134 20.3745 48.1376 19.3061 49.7015C14.6946 56.3695 14.6883 65.9599 17.9701 73.1531C22.3995 83.0884 33.1338 87.8486 41.8332 93.5401C49.1535 98.2614 56.5719 102.798 64.0452 107.009C50.3236 118.782 33.8923 137.878 49.693 155.163C55.5637 161.719 64.1803 165.116 72.9418 166.459C86.0842 168.472 99.5481 166.985 111.876 162.288C138.001 152.135 162.085 128.224 158.059 105.948C153.989 83.531 127.725 86.1479 120.968 88.8324ZM99.4879 109.627C99.3302 106.582 100.563 104.04 102.064 103.891C103.608 103.883 104.952 106.255 105.11 109.3C105.268 112.345 104.034 114.887 102.534 115.037C100.891 115.23 99.5041 112.715 99.4879 109.627ZM80.6378 113.225C82.0521 112.793 84.0168 114.667 85.0663 117.593C86.1158 120.52 85.578 123.314 84.1636 123.746C82.7493 124.179 80.7846 122.305 79.7351 119.378C78.6856 116.451 79.082 113.701 80.6378 113.225ZM123.62 113.694C123.561 116.031 122.956 119.619 120.352 122.735C117.453 126.405 112.676 128.484 107.109 128.485C102.292 128.411 98.4573 126.49 96.025 124.605C95.189 129.964 91.8424 134.699 87.1635 136.593C86.7392 136.723 86.2167 137.037 85.7924 137.167C81.6909 138.421 78.0172 137.533 76.0723 136.736C75.1922 136.387 74.7481 135.44 75.0976 134.56C75.4471 133.68 76.3939 133.236 77.274 133.585C78.6649 134.088 82.2403 135.16 85.7878 133.611C90.0425 131.847 92.7802 127.143 92.7676 122.044C91.974 121.977 90.9956 121.812 89.9741 121.506C88.1589 121.133 87.8247 119.534 88.9363 118.111C90.1894 116.646 92.3424 116.606 93.9964 115.946C94.4207 115.816 94.8449 115.686 95.2692 115.557C96.161 115.439 96.9547 115.505 97.442 116.593C97.9726 117.823 97.5132 119.355 96.7393 120.365C96.6412 120.55 96.4997 120.593 96.4016 120.778C98.1384 122.412 101.765 125.169 107.049 125.255C111.682 125.231 115.272 123.824 117.594 120.794C119.479 118.362 120.017 115.568 120.064 113.698C120.087 112.763 120.948 112.036 121.883 112.06C122.916 111.898 123.643 112.759 123.62 113.694Z" fill="white"/>
</svg>
