<svg width="146" height="140" viewBox="0 0 146 140" fill="none" xmlns="http://www.w3.org/2000/svg">
<path d="M117.408 4.47036C95.1082 -5.42964 70.2082 1.67035 62.0082 20.2703C57.9082 29.5704 58.4082 40.1704 63.6082 50.0704C65.2082 53.1704 67.2082 56.0703 69.5082 58.6703L67.7082 61.3704C62.9082 68.4704 57.6082 76.5704 52.3082 84.9704C50.4082 87.9704 48.6082 90.8704 46.7082 93.8704C45.2082 96.3704 43.6082 98.8704 42.0082 101.37C38.8082 99.5704 34.9082 98.8704 31.0082 99.3704C27.4082 99.8704 24.0082 101.07 20.8082 102.97C12.5082 107.97 6.20818 115.27 2.30818 124.67C1.50818 126.47 1.10817 128.47 1.00817 130.77C0.808165 134.57 3.10818 137.87 6.80818 138.97C8.40818 139.47 9.90818 139.47 10.8082 139.47L10.9082 139.47C15.3082 139.57 19.8082 139.57 24.2082 139.57C30.4082 139.57 36.5082 139.47 42.5082 139.47L46.7082 139.47C47.6082 139.47 48.5082 139.37 49.3082 139.37C49.6082 139.37 50.0082 139.27 50.3082 139.27C53.4082 139.07 56.0082 137.57 57.5082 134.97C57.6082 134.87 57.6082 134.77 57.7082 134.67C58.0082 135.37 58.3082 135.87 58.6082 136.27C59.5082 137.57 61.7082 139.77 65.9082 139.87C66.1082 139.87 66.2082 139.87 66.4082 139.87C67.0082 139.87 67.5082 139.87 68.1082 139.87C68.5082 139.87 68.9082 139.87 69.3082 139.87L116.208 139.57L116.608 139.57C117.208 139.57 117.908 139.57 118.808 139.47L119.308 139.37L119.808 139.27C120.308 139.17 121.708 138.67 123.108 137.87C127.008 135.27 128.108 130.27 126.308 122.47C125.408 118.57 124.808 115.97 122.908 112.77C119.408 106.67 113.808 102.57 107.208 101.07C105.308 100.67 103.308 100.47 101.408 100.47C103.608 93.7704 105.908 87.0704 108.108 80.3704L109.408 76.4704C113.008 76.3704 116.508 75.8704 119.908 74.9704C130.708 72.0704 138.908 65.3704 143.108 56.0704C151.208 37.5704 139.708 14.3704 117.408 4.47036Z" fill="#CAB3FA"/>
<path d="M116.708 116.27C111.508 107.17 100.308 104.67 91.7084 110.67C91.3084 110.97 90.9084 111.27 90.4084 111.57C90.3084 111.47 90.2084 111.47 90.1084 111.37C90.9084 108.97 91.7084 106.57 92.5084 104.27C95.4084 95.5702 98.3084 86.8702 101.208 78.1702C98.5084 77.7702 95.7084 77.2702 93.0084 76.3702C92.0084 76.0702 91.1084 75.7702 90.2084 75.4702C81.7084 93.0702 73.3084 110.67 65.1084 128.47C64.8084 129.17 64.4084 129.97 64.2084 130.67C63.7084 132.17 64.2084 132.97 65.9084 132.97C67.0084 132.97 68.1084 132.97 69.2084 132.97C84.8084 132.87 100.508 132.77 116.108 132.67C116.708 132.67 117.408 132.67 118.008 132.67C118.008 132.67 118.708 132.47 119.208 132.17C121.008 130.97 119.608 124.77 119.508 124.07C118.508 120.67 118.008 118.67 116.708 116.27Z" fill="#111111"/>
<path d="M83.4084 72.4701C79.6084 70.4701 76.3084 68.0701 73.3084 65.3701C68.2084 72.9701 63.1084 80.7701 58.0084 88.7701C53.0084 96.7701 48.0084 104.77 42.9084 112.77C42.7084 112.47 42.5084 112.37 42.5084 112.17C40.9084 107.87 36.4084 105.67 31.7084 106.37C29.0084 106.77 26.5084 107.67 24.1084 109.07C16.8084 113.47 11.7084 119.67 8.40842 127.47C7.90842 128.67 7.7084 129.87 7.6084 131.17C7.6084 131.87 7.90839 132.27 8.50839 132.47C9.20839 132.67 10.0084 132.67 10.7084 132.67C22.6084 132.87 34.5084 132.77 46.4084 132.67C47.5084 132.67 48.6084 132.57 49.7084 132.47C50.4084 132.47 50.9084 132.17 51.3084 131.57C52.5084 129.57 53.7084 127.67 54.8084 125.67C64.4084 108.27 73.8084 90.7701 83.0084 73.1701C83.2084 72.9701 83.3084 72.6701 83.4084 72.4701Z" fill="#111111"/>
<path d="M100.122 27.4682C101.668 27.4374 102.87 24.8161 102.806 21.6135C102.742 18.4109 101.437 15.8397 99.8912 15.8705C98.3451 15.9013 97.1435 18.5225 97.2073 21.7251C97.2712 24.9277 98.5762 27.499 100.122 27.4682Z" fill="#111111"/>
<path d="M112.408 28.4704C112.908 31.6704 114.608 33.9704 116.108 33.7704C117.608 33.4704 118.508 30.7704 118.008 27.5704C117.508 24.3704 115.808 22.0704 114.308 22.2704C112.808 22.4704 111.908 25.2704 112.408 28.4704Z" fill="#111111"/>
<path d="M115.208 9.57026C95.7084 0.870256 74.1084 6.77026 67.1084 22.5703C63.7084 30.2703 64.2084 39.1703 68.5084 47.5703C72.8084 55.8703 80.3084 62.7702 89.7084 66.9702C95.7084 69.6702 102.108 70.9703 108.208 70.9703C111.608 70.9703 115.008 70.5702 118.308 69.6702C127.508 67.2702 134.408 61.6702 137.808 53.9702C144.808 38.1702 134.708 18.2703 115.208 9.57026ZM115.308 12.6702C119.208 14.5702 122.708 16.8703 125.708 19.5703C125.608 21.6703 124.808 31.8702 121.408 42.6702L119.008 41.6702C119.708 41.1702 120.308 40.5703 121.008 40.0703C121.308 39.7703 121.308 39.3703 121.108 39.0703C120.908 38.6703 120.408 38.5702 120.008 38.7702C118.908 39.4702 117.708 40.0702 116.608 40.6702L105.108 35.7702L115.308 12.6702ZM113.008 42.2702C112.608 42.3702 112.308 42.5702 111.908 42.6702C109.108 43.5702 106.208 44.2702 103.208 44.3702C102.508 44.3702 101.808 44.4702 101.208 44.3702L103.908 38.2702L113.008 42.2702ZM99.8084 8.47025C104.108 8.77025 108.408 9.87026 112.708 11.5703L102.408 34.7702L85.0084 27.4703C85.8084 25.5703 86.8084 23.6702 87.9084 21.8702C92.5084 14.1702 98.3084 9.57025 99.8084 8.47025ZM95.5084 8.37024C92.8084 10.6702 89.0084 14.6702 85.6084 20.2702C84.5084 22.0702 83.5084 24.0702 82.5084 26.3702L70.8084 21.4703C75.5084 13.2703 84.9084 8.67024 95.5084 8.37024ZM80.6084 58.0703C76.6084 54.7703 73.3084 50.7702 71.0084 46.2702C67.1084 38.6702 66.6084 30.7702 69.6084 23.8702L81.6084 28.8702C78.8084 36.4702 77.5084 46.2703 80.6084 58.0703ZM89.6084 63.7702C87.7084 62.8702 86.0084 61.8702 84.3084 60.7702C80.7084 49.8702 80.7084 39.4703 84.1084 29.9703L101.408 37.2702L98.3084 44.2702C97.0084 44.1702 95.7084 43.9702 94.5084 43.6702C91.6084 42.9702 88.8084 41.9703 86.1084 40.5703C85.7084 40.3703 85.3084 40.4702 85.1084 40.8702C84.8084 41.2702 84.9084 41.7702 85.3084 41.9702C87.9084 43.7702 90.8084 45.1703 93.9084 46.0703C95.0084 46.3703 96.1084 46.6702 97.2084 46.8702L89.6084 63.7702ZM104.108 67.9702C100.108 67.5702 96.0084 66.5702 92.1084 64.9702L100.008 47.0703C101.108 47.1703 102.208 47.1702 103.308 47.1702C104.908 47.1702 106.508 46.8703 108.108 46.5703C109.708 46.2703 111.208 45.7702 112.708 45.1702C113.808 44.6702 115.008 44.1703 116.008 43.5703L120.408 45.3702C117.308 54.3702 112.308 63.2702 104.108 67.9702ZM135.308 52.7702C132.208 59.6702 126.008 64.7702 117.608 66.9702C114.808 67.7702 111.808 68.0702 108.808 68.1702C114.808 63.5702 119.608 56.1702 123.108 46.4702L135.708 51.7702C135.608 52.1702 135.408 52.4702 135.308 52.7702ZM136.508 49.1702L123.908 43.8702C124.308 42.7702 124.608 41.5702 124.908 40.3702C127.008 32.7702 127.808 25.8702 128.108 22.1702C135.508 30.0702 138.808 40.0702 136.508 49.1702Z" fill="#111111"/>
</svg>
