<svg width="157" height="157" viewBox="0 0 157 157" fill="none" xmlns="http://www.w3.org/2000/svg">
<path d="M78.4998 155.141C120.827 155.141 155.14 120.827 155.14 78.5001C155.14 36.1727 120.827 1.85962 78.4998 1.85962C36.1725 1.85962 1.85938 36.1727 1.85938 78.5001C1.85938 120.827 36.1725 155.141 78.4998 155.141Z" fill="#111111"/>
<path d="M81.1565 85.4069L78.7657 109.847L76.3748 84.8756L56.3181 101.479L72.5229 81.8206L47.1531 79.4298L72.5229 77.0389L56.3181 57.3807L76.242 73.8511L78.7657 47.4188L81.2893 73.1869L100.549 57.2478L84.3444 76.906L109.714 79.297L84.3444 81.6878L100.549 101.346L81.1565 85.4069ZM43.0355 104.135C43.8325 107.057 46.8875 108.651 49.8097 107.854C52.7318 107.058 54.3258 104.002 53.5288 101.08C52.7318 98.1582 49.6768 96.5643 46.7547 97.3612C45.5592 97.6269 44.6295 98.291 43.9653 99.2208L22.846 89.5245C22.846 88.9932 22.846 88.5947 22.7132 88.0634C22.5804 87.7978 22.4476 87.5322 22.3147 87.2665L47.0203 54.0601C47.6844 54.3257 48.4814 54.3257 49.2784 54.0601C51.4036 53.396 52.4662 51.2707 51.9349 49.2783C51.2707 47.1531 49.1455 46.0905 47.1531 46.6218C45.1608 47.1531 43.9653 49.4112 44.4966 51.4036C44.6295 51.802 44.7623 52.2005 45.0279 52.4662L20.4552 85.5397C19.6582 85.2741 18.8613 85.1413 17.9315 85.4069C15.8063 86.071 14.7437 88.1962 15.275 90.1886C15.9391 92.3138 18.0643 93.3764 20.0567 92.8451C20.7208 92.7123 21.2521 92.3138 21.7834 91.7825L42.9027 101.479C42.7699 102.409 42.7699 103.206 43.0355 104.135ZM137.076 64.6861C134.951 62.5609 131.63 62.5609 129.638 64.6861C129.505 64.819 129.505 64.8189 129.372 64.9517L93.3765 47.0203C93.3765 46.8874 93.3765 46.7546 93.3765 46.6218C93.3765 44.7622 91.9154 43.3011 90.0559 43.3011C88.1963 43.3011 86.7352 44.7622 86.7352 46.6218C86.7352 48.4814 88.1963 49.9424 90.0559 49.9424C90.8528 49.9424 91.517 49.6768 92.0483 49.2783L128.177 67.2098C127.911 68.2724 128.044 69.4678 128.442 70.5304L109.581 86.4695C109.05 86.2039 108.651 86.2038 107.987 86.2038C106.128 86.3367 104.8 87.9306 104.932 89.7901C105.065 91.6497 106.659 92.9779 108.519 92.8451C109.183 92.8451 109.847 92.5795 110.378 92.181L125.786 99.6193C125.653 100.682 126.052 101.612 126.716 102.409C128.044 103.737 130.302 103.737 131.63 102.409C132.959 101.08 132.959 98.8223 131.63 97.494C130.302 96.1658 128.31 96.1658 126.981 97.2284L111.574 89.7901C111.574 89.6573 111.574 89.3917 111.574 89.2589C111.574 88.9932 111.441 88.5947 111.308 88.3291L129.904 72.5228C132.029 74.1167 134.951 73.9839 136.943 72.1243C139.201 70.132 139.201 66.8113 137.076 64.6861ZM35.9958 44.8951L26.9637 36.1286L30.9484 32.011C33.0736 29.7529 35.066 29.6201 36.9256 31.3468C38.121 32.5423 38.3866 34.1362 37.7225 35.5973L43.6997 37.1912L41.7073 39.1836L36.3942 37.8553L34.4019 39.8477L37.8553 43.1684L35.9958 44.8951ZM32.808 38.121L34.8004 36.1286C35.863 35.066 36.1286 34.1362 35.066 33.2064C34.1362 32.2766 33.2065 32.5423 32.1438 33.6049L30.1515 35.5973L32.808 38.121ZM52.599 30.9484L51.4036 29.0888L45.692 32.9408L43.9653 30.417L49.1455 26.9636L47.9501 25.104L42.7699 28.5575L41.176 26.1667L46.8875 22.4475L45.692 20.588L37.8553 25.7681L44.8951 36.2614L52.599 30.9484ZM56.8494 29.2217L51.5364 17.7986L49.1455 18.8613L54.4586 30.2842L56.8494 29.2217ZM61.0998 27.3621L58.8418 18.0643L64.4205 26.5651L66.8114 26.0338L67.874 15.9391L70.132 25.2369L72.5229 24.7055L69.4679 12.4856L65.8816 13.4154L64.819 23.643L59.2403 15.0093L55.654 15.9391L58.709 28.1591L61.0998 27.3621ZM76.242 24.5728H73.5855L78.6328 12.0871L81.9535 12.22L86.3368 24.9712H83.6803L82.7505 22.3147L77.4374 22.1819L76.242 24.5728ZM77.9687 19.791L81.9535 19.9239L80.0939 14.2124L77.9687 19.791ZM91.6498 26.5651C93.6422 27.0964 95.1032 26.5651 96.1658 25.6353L95.7674 27.3621L98.0254 27.8934L99.7521 21.2521L94.3063 19.791L93.775 21.7834L96.83 22.5804C96.1658 24.3071 94.4391 24.8384 92.8452 24.4399C90.72 23.9086 89.7902 21.9162 90.4543 19.2597C91.1185 16.8689 92.978 15.4078 95.1032 15.9391C96.5643 16.3376 97.6269 17.4002 97.4941 18.9941L100.151 19.6582C100.549 16.736 98.5567 14.6108 95.6346 13.8138C91.7826 12.884 88.8604 14.7437 87.7978 18.5956C86.6024 22.4475 88.3292 25.6354 91.6498 26.5651ZM102.01 30.0186L107.19 18.4627L104.8 17.4001L99.6193 28.956L102.01 30.0186ZM105.995 32.011L111.175 24.1743L110.644 35.0659L113.3 36.7927L120.34 26.2995L118.215 24.9712L113.035 32.808L113.433 21.7834L110.777 20.0566L103.737 30.5499L105.995 32.011ZM121.403 45.1607L122.997 43.5668L118.215 38.5195L120.473 36.3942L124.723 40.9103L126.317 39.4493L122.067 34.9331L124.059 32.9408L128.708 37.8553L130.302 36.2614L123.794 29.4873L114.629 38.2538L121.403 45.1607ZM42.2386 119.543L36.9256 124.856C35.5973 126.184 34.0034 126.317 32.808 124.989C31.6125 123.794 31.6126 122.2 32.9408 120.871L38.2538 115.558L36.3942 113.699L31.0812 119.012C28.5575 121.536 28.8232 124.192 31.214 126.583C33.6049 128.974 36.1286 129.239 38.7851 126.583L44.0982 121.27L42.2386 119.543ZM45.9577 128.442C45.1608 127.646 45.0279 126.981 45.4264 126.45C45.9577 125.653 47.0203 125.653 48.2158 126.45C49.4112 127.247 49.9425 128.31 49.2784 129.505L51.5364 130.966C52.9975 128.708 51.802 126.317 49.2784 124.723C46.8875 123.129 44.3638 123.262 43.1684 125.255C42.1058 126.849 42.5042 128.442 43.9653 129.904L46.2234 132.161C47.0203 132.958 47.1532 133.623 46.7547 134.154C46.2234 134.951 45.0279 134.951 43.6997 134.154C42.3714 133.224 41.8401 132.029 42.5042 130.7L40.2462 129.239C38.7851 131.497 39.5821 134.021 42.5042 135.881C45.1608 137.607 47.8173 137.475 49.0127 135.482C50.0753 133.888 49.6769 132.161 48.2158 130.833L45.9577 128.442ZM62.6938 133.756L63.4907 131.63L54.7242 128.31L50.2082 140.131L59.1075 143.585L59.9044 141.459L53.396 138.936L54.4586 136.146L60.1701 138.404L60.967 136.412L55.2555 134.154L56.3181 131.497L62.6938 133.756ZM75.7107 139.998C75.1794 143.585 72.7885 145.975 68.2724 145.311L63.3579 144.647L65.2174 132.161L70.132 132.826C74.5153 133.49 76.242 136.412 75.7107 139.998ZM69.7335 134.951L67.4755 134.552L66.28 142.655L68.5381 143.053C70.929 143.452 72.6557 142.256 73.0542 139.6C73.3199 136.943 71.9916 135.349 69.7335 134.951ZM90.72 132.427L79.8283 133.756L80.0939 136.013L84.2115 135.482L85.407 145.71L87.9306 145.444L86.7352 135.217L90.8528 134.685L90.72 132.427ZM97.8925 140.928L96.83 138.006L102.674 136.013L102.01 133.888L96.1658 135.881L95.236 133.224L101.612 130.966L100.815 128.841L91.9154 131.896L96.033 143.85L105.065 140.795L104.268 138.67L97.8925 140.928ZM113.832 130.833C114.363 132.294 113.832 133.755 112.371 134.685C110.511 135.748 108.386 135.084 107.058 132.826C105.729 130.568 106.128 128.31 107.854 127.247C109.316 126.317 110.909 126.583 111.839 127.778L114.097 126.317C112.238 123.926 109.183 123.794 106.659 125.387C103.338 127.38 102.674 130.833 104.667 134.287C106.659 137.607 110.113 138.67 113.433 136.545C116.09 134.951 117.285 132.161 116.09 129.505L113.832 130.833ZM118.746 115.824L122.2 119.41L117.949 123.661L114.496 120.074L112.636 121.934L121.536 130.966L123.395 129.107L119.676 125.387L123.926 121.137L127.646 124.856L129.505 122.997L120.606 113.964L118.746 115.824ZM157 78.5C157 121.801 121.801 157 78.5 157C35.1988 157 0 121.801 0 78.5C0 35.1988 35.1988 0 78.5 0C121.801 0 157 35.1988 157 78.5ZM153.148 78.5C153.148 37.324 119.676 3.8519 78.5 3.8519C37.324 3.8519 3.85194 37.324 3.85194 78.5C3.85194 119.676 37.324 153.148 78.5 153.148C119.676 153.148 153.148 119.676 153.148 78.5Z" fill="#CAB3FA"/>
</svg>
